<svg xmlns="http://www.w3.org/2000/svg" xmlns:xlink="http://www.w3.org/1999/xlink" width="407" height="393" viewBox="0 0 407 393">
  <defs>
    <clipPath id="clip-path">
      <rect id="Rectangle_17" data-name="Rectangle 17" width="407" height="393" transform="translate(6.738 57.403)" fill="#fff" stroke="#707070" stroke-width="1"/>
    </clipPath>
    <linearGradient id="linear-gradient" x1="0.5" x2="0.5" y2="1" gradientUnits="objectBoundingBox">
      <stop offset="0" stop-color="#1ce644"/>
      <stop offset="1" stop-color="gray"/>
    </linearGradient>
  </defs>
  <g id="Mask_Group_2" data-name="Mask Group 2" transform="translate(-6.738 -57.403)" clip-path="url(#clip-path)">
    <g id="Path_2" data-name="Path 2" transform="translate(78.934 43.428) rotate(14)" fill="url(#linear-gradient)">
      <path d="M 343.4658813476562 325.7767944335938 L 343.3448791503906 325.7765502929688 L 31.9788875579834 324.6353454589844 C 29.0247859954834 324.6244812011719 26.12313652038574 324.2144470214844 23.35453605651855 323.4164428710938 C 20.70233726501465 322.6519775390625 18.16158676147461 321.5293884277344 15.80298709869385 320.0797424316406 C 11.2579870223999 317.2863464355469 7.434186935424805 313.3021850585938 4.744987010955811 308.5579833984375 C 2.022236824035645 303.7545776367188 0.5548868179321289 298.3404846191406 0.5015367865562439 292.9010314941406 C 0.4738367795944214 290.0798034667969 0.8263368010520935 287.26953125 1.54923677444458 284.5484924316406 C 2.304136753082275 281.7069396972656 3.466386795043945 278.9532470703125 5.003686904907227 276.3638916015625 L 159.7423400878906 15.72699069976807 C 161.2140350341797 13.24804019927979 162.9821319580078 11.00524044036865 164.9974365234375 9.060790061950684 C 166.9312896728516 7.19489049911499 169.1013336181641 5.594590187072754 171.4472808837891 4.304340362548828 C 175.9725341796875 1.815540313720703 181.1310882568359 0.4999903440475464 186.365234375 0.4999903440475464 C 191.6400909423828 0.4999903440475464 196.8531341552734 1.833990335464478 201.4408416748047 4.357690334320068 C 203.8186798095703 5.665740489959717 206.0208892822266 7.28734016418457 207.9862823486328 9.177490234375 C 210.0348358154297 11.14759063720703 211.8347930908203 13.41878986358643 213.3361358642578 15.92804050445557 L 369.9635009765625 277.7061462402344 C 371.5256958007812 280.317138671875 372.7109375 283.0906982421875 373.4863891601562 285.9497375488281 C 374.2287292480469 288.6869812011719 374.5985412597656 291.5106811523438 374.58544921875 294.3423767089844 C 374.5601501464844 299.8020324707031 373.111083984375 305.2199401855469 370.3948364257812 310.0103759765625 C 367.7426452636719 314.6879272460938 363.96728515625 318.6073303222656 359.4769287109375 321.3448486328125 C 357.1463928222656 322.7655944824219 354.6336975097656 323.8631286621094 352.0086975097656 324.60693359375 C 349.2691345214844 325.3831787109375 346.3949279785156 325.7767944335938 343.4658813476562 325.7767944335938 Z" stroke="none"/>
      <path d="M 186.3652801513672 1 C 181.2151336669922 1 176.139892578125 2.29412841796875 171.688232421875 4.742431640625 C 169.3809814453125 6.011444091796875 167.2466888427734 7.58538818359375 165.3445892333984 9.42059326171875 C 163.3614349365234 11.33404541015625 161.6211853027344 13.54168701171875 160.1722869873047 15.98223876953125 L 5.433624267578125 276.619140625 C 3.919891357421875 279.1688232421875 2.77557373046875 281.8798828125 2.032501220703125 284.6768493652344 C 1.321136474609375 287.3544921875 0.974273681640625 290.1198425292969 1.001495361328125 292.8961791992188 C 1.054046630859375 298.2510986328125 2.498931884765625 303.5816345214844 5.180023193359375 308.3114318847656 C 7.82769775390625 312.9823913574219 11.59158325195312 316.9044799804688 16.06484985351562 319.6537780761719 C 18.38497924804688 321.0798034667969 20.88418579101562 322.18408203125 23.4930419921875 322.9360046386719 C 26.21719360351562 323.72119140625 29.07284545898438 324.1246948242188 31.98068237304688 324.1353454589844 L 343.4658813476562 325.2767944335938 C 346.3488464355469 325.2767944335938 349.1771240234375 324.8895874023438 351.8723449707031 324.1258850097656 C 354.4537963867188 323.3944396972656 356.9247741699219 322.3151550292969 359.2166442871094 320.9179382324219 C 363.6345825195312 318.2245483398438 367.3495788574219 314.3675537109375 369.9599304199219 309.7637329101562 C 372.6339721679688 305.0476379394531 374.0605773925781 299.7142028808594 374.08544921875 294.3400268554688 C 374.0983276367188 291.5533447265625 373.7344360351562 288.7744750976562 373.0037841796875 286.0806274414062 C 372.2403869628906 283.2657470703125 371.0730895996094 280.5345458984375 369.5343933105469 277.962890625 L 212.9070434570312 16.18478393554688 C 211.4284820556641 13.71359252929688 209.6562805175781 11.47723388671875 207.6396942138672 9.537841796875 C 205.7059326171875 7.678131103515625 203.5392303466797 6.0826416015625 201.1998443603516 4.795745849609375 C 196.685791015625 2.312530517578125 191.5560913085938 1 186.3652801513672 1 M 186.3652648925781 0 C 196.9244995117188 0 207.5169525146484 5.2283935546875 213.7651824951172 15.67132568359375 L 370.3925476074219 277.4494323730469 C 383.2582702636719 298.9524841308594 368.1610412597656 326.2767639160156 343.4659118652344 326.2767639160156 C 343.4236145019531 326.2767639160156 343.3853759765625 326.2767028808594 343.3430480957031 326.2765502929688 L 31.97705078125 325.1353454589844 C 7.20672607421875 325.0445556640625 -8.158599853515625 297.5546264648438 4.57373046875 276.108642578125 L 159.3123931884766 15.47174072265625 C 165.438720703125 5.152740478515625 175.8856506347656 0 186.3652648925781 0 Z" stroke="none" fill="#707070"/>
    </g>
  </g>
</svg>
