<svg xmlns="http://www.w3.org/2000/svg" xmlns:xlink="http://www.w3.org/1999/xlink" width="385" height="357" viewBox="0 0 385 357">
  <defs>
    <clipPath id="clip-path">
      <rect id="Rectangle_16" data-name="Rectangle 16" width="385" height="357" transform="translate(115 13)" fill="#fff" stroke="#707070" stroke-width="1"/>
    </clipPath>
    <linearGradient id="linear-gradient" x1="0.5" x2="0.5" y2="1" gradientUnits="objectBoundingBox">
      <stop offset="0" stop-color="#56ef74" stop-opacity="0.71"/>
      <stop offset="1" stop-color="#ba89c2" stop-opacity="0.71"/>
    </linearGradient>
  </defs>
  <g id="Mask_Group_1" data-name="Mask Group 1" transform="translate(-115 -13)" clip-path="url(#clip-path)">
    <g id="Path_1" data-name="Path 1" transform="translate(127 23)" fill="url(#linear-gradient)">
      <path d="M178.5,0H357V173.5C357,269.321,277.083,347,178.5,347S0,269.321,0,173.5,79.917,0,178.5,0Z" stroke="none"/>
      <path d="M 178.5 1 C 166.4543609619141 1 154.4165954589844 2.17950439453125 142.7210845947266 4.50567626953125 C 131.3236389160156 6.77264404296875 120.1127777099609 10.15518188476562 109.3999938964844 14.55935668945312 C 98.88189697265625 18.883544921875 88.73727416992188 24.23562622070312 79.24786376953125 30.46694946289062 C 69.848876953125 36.638916015625 61.01055908203125 43.72689819335938 52.97845458984375 51.5340576171875 C 44.94680786132812 59.34066772460938 37.65518188476562 67.93063354492188 31.30612182617188 77.06521606445312 C 24.896728515625 86.28665161132812 19.39181518554688 96.14450073242188 14.94436645507812 106.3650054931641 C 10.41494750976562 116.773681640625 6.936309814453125 127.6661376953125 4.60504150390625 138.7397308349609 C 2.212921142578125 150.1022796630859 1 161.7973175048828 1 173.5 C 1 185.2026824951172 2.212921142578125 196.8977203369141 4.60504150390625 208.2602691650391 C 6.936309814453125 219.3338623046875 10.41494750976562 230.226318359375 14.94436645507812 240.635009765625 C 19.39181518554688 250.8554992675781 24.896728515625 260.71337890625 31.30612182617188 269.9347839355469 C 37.65518188476562 279.0693664550781 44.94680786132812 287.6593017578125 52.97845458984375 295.4659423828125 C 61.01055908203125 303.2731018066406 69.848876953125 310.361083984375 79.24786376953125 316.5330505371094 C 88.73727416992188 322.7643737792969 98.88189697265625 328.116455078125 109.3999938964844 332.4406433105469 C 120.1127777099609 336.8448181152344 131.3236389160156 340.2273559570312 142.7210845947266 342.4943237304688 C 154.4165954589844 344.8204956054688 166.4543609619141 346 178.5 346 C 190.5456390380859 346 202.5834045410156 344.8204956054688 214.2789154052734 342.4943237304688 C 225.6763610839844 340.2273559570312 236.8872375488281 336.8448181152344 247.6000061035156 332.4406433105469 C 258.1181030273438 328.116455078125 268.2627258300781 322.7643737792969 277.7521362304688 316.5330505371094 C 287.151123046875 310.361083984375 295.9894409179688 303.2731018066406 304.0215454101562 295.4659423828125 C 312.0531921386719 287.6593017578125 319.3448181152344 279.0693664550781 325.69384765625 269.9347839355469 C 332.103271484375 260.71337890625 337.6081848144531 250.8554992675781 342.0556335449219 240.635009765625 C 346.5850524902344 230.226318359375 350.0636901855469 219.3338623046875 352.3949584960938 208.2602691650391 C 354.7870788574219 196.8977203369141 356 185.2026824951172 356 173.5 L 356 1 L 178.5 1 M 178.5 0 C 232.2276306152344 0 357 0 357 0 C 357 0 357 129.9012756347656 357 173.5 C 357 269.3214111328125 277.0828247070312 347 178.5 347 C 79.91717529296875 347 0 269.3214111328125 0 173.5 C 0 77.6785888671875 79.91717529296875 0 178.5 0 Z" stroke="none" fill="rgba(112,112,112,0.22)"/>
    </g>
  </g>
</svg>
