<svg xmlns="http://www.w3.org/2000/svg" width="1366" height="179.345" viewBox="0 0 1366 179.345">
  <g id="Path_8" data-name="Path 8" fill="rgba(236,140,175,0.92)">
    <path d="M 684.9111938476562 178.8452758789062 C 654.1886596679688 178.8452758789062 621.6136474609375 177.6751098632812 588.0910034179688 175.3671112060547 C 557.6143188476562 173.2689361572266 525.6698608398438 170.1836090087891 493.1449890136719 166.19677734375 C 438.364013671875 159.4821014404297 380.9456787109375 150.1192779541016 322.4846801757812 138.3682708740234 C 299.5174865722656 133.7517700195312 276.3324890136719 128.7509460449219 253.5735015869141 123.5049438476562 C 235.3665008544922 119.30810546875 217.3898315429688 114.9459381103516 200.1430053710938 110.5392761230469 C 170.7803344726562 103.037109375 153.4981689453125 97.94277191162109 153.3269958496094 97.89210510253906 L 0.5 52.62664413452148 L 0.5 0.4999407529830933 L 1365.5 0.4999407529830933 L 1365.5 52.61303329467773 L 1190.8701171875 97.88760375976562 L 1190.855346679688 97.89144134521484 L 1190.840698242188 97.89627075195312 C 1190.685546875 97.94677734375 1175.011840820312 103.0427703857422 1148.022338867188 110.5452728271484 C 1132.171020507812 114.951774597168 1115.576049804688 119.3137741088867 1098.698364257812 123.5104370117188 C 1077.601440429688 128.756103515625 1056.0009765625 133.7564392089844 1034.496826171875 138.3726043701172 C 979.7606811523438 150.1222686767578 925.3108520507812 159.4842681884766 872.6598510742188 166.1982727050781 C 841.399658203125 170.1846008300781 810.4345092773438 173.2694396972656 780.6241455078125 175.3674468994141 C 747.83447265625 177.6751098632812 715.6320190429688 178.8452758789062 684.9111938476562 178.8452758789062 Z" stroke="none"/>
    <path d="M 1 0.99993896484375 L 1 52.25318145751953 L 153.4688720703125 97.41260528564453 C 153.639892578125 97.46310424804688 170.9129638671875 102.5549392700195 200.2667236328125 110.0549392700195 C 217.5098876953125 114.4604415893555 235.4825439453125 118.82177734375 253.685791015625 123.0177764892578 C 276.440185546875 128.2627716064453 299.6207275390625 133.2624359130859 322.5831298828125 137.8781127929688 C 381.0316772460938 149.6266021728516 438.4375 158.9874420166016 493.205810546875 165.7006072998047 C 525.7218627929688 169.686279296875 557.657470703125 172.7706146240234 588.1253051757812 174.8682708740234 C 621.6366577148438 177.1754455566406 654.2001953125 178.3452758789062 684.9111938476562 178.3452758789062 C 715.6188354492188 178.3452758789062 747.8079833984375 177.17578125 780.58447265625 174.8691101074219 C 810.3839721679688 172.7719421386719 841.3385009765625 169.6881103515625 872.5878295898438 165.7034454345703 C 925.22314453125 158.9916076660156 979.6571655273438 149.6327819824219 1034.3779296875 137.8866119384766 C 1055.876831054688 133.2717742919922 1077.471923828125 128.27294921875 1098.563720703125 123.0286102294922 C 1115.4375 118.8332748413086 1132.028686523438 114.4722747802734 1147.87646484375 110.0669403076172 C 1174.860107421875 102.5661087036133 1190.530517578125 97.47144317626953 1190.685668945312 97.42094421386719 L 1190.74462890625 97.40361022949219 L 1365 52.22612762451172 L 1365 0.99993896484375 L 1 0.99993896484375 M 0 -6.103515625e-05 L 1366 -6.103515625e-05 L 1366 52.99993896484375 L 1190.99560546875 98.37160491943359 C 1190.99560546875 98.37160491943359 942.6768188476562 179.3452758789062 684.9111938476562 179.3452758789062 C 427.1455078125 179.3452758789062 153.185302734375 98.37160491943359 153.185302734375 98.37160491943359 L 0 52.99993896484375 L 0 -6.103515625e-05 Z" stroke="none" fill="#707070"/>
  </g>
</svg>
