<svg xmlns="http://www.w3.org/2000/svg" xmlns:xlink="http://www.w3.org/1999/xlink" width="333" height="238" viewBox="0 0 333 238">
  <defs>
    <clipPath id="clip-path">
      <rect id="Rectangle_18" data-name="Rectangle 18" width="333" height="238" transform="translate(99 371)" fill="#fff" stroke="#707070" stroke-width="1"/>
    </clipPath>
    <linearGradient id="linear-gradient" x1="0.5" x2="0.5" y2="1" gradientUnits="objectBoundingBox">
      <stop offset="0" stop-color="#a542c2" stop-opacity="0.902"/>
      <stop offset="1" stop-color="gray"/>
    </linearGradient>
    <filter id="Path_3" x="-9" y="7.12" width="350.711" height="242.701" filterUnits="userSpaceOnUse">
      <feOffset dy="3" input="SourceAlpha"/>
      <feGaussianBlur stdDeviation="3" result="blur"/>
      <feFlood flood-color="#241f1f" flood-opacity="0.69"/>
      <feComposite operator="in" in2="blur"/>
      <feComposite in="SourceGraphic"/>
    </filter>
  </defs>
  <g id="Mask_Group_3" data-name="Mask Group 3" transform="translate(-99 -371)" clip-path="url(#clip-path)">
    <g transform="matrix(1, 0, 0, 1, 99, 371)" filter="url(#Path_3)">
      <g id="Path_3-2" data-name="Path 3" transform="translate(0 -80)" fill="url(#linear-gradient)">
        <path d="M 166.35546875 317.3216552734375 C 155.1026763916016 317.3216552734375 143.8571319580078 316.1661987304688 132.9311370849609 313.8873596191406 C 122.2829666137695 311.6664733886719 111.8090515136719 308.3526000976562 101.8003463745117 304.0377807617188 C 91.97305297851562 299.8011474609375 82.49455261230469 294.5573120117188 73.62813568115234 288.4519348144531 C 64.84559631347656 282.4043579101562 56.58688354492188 275.4590454101562 49.08130264282227 267.8089904785156 C 41.57559204101562 260.1587219238281 34.76126098632812 251.7406768798828 28.82767677307129 242.7887268066406 C 22.83713531494141 233.7508087158203 17.69188499450684 224.0888977050781 13.53484344482422 214.0713958740234 C 9.300969123840332 203.8686065673828 6.049218654632568 193.1915130615234 3.86996865272522 182.3367309570312 C 1.633843779563904 171.1985626220703 0.5000104308128357 159.7345581054688 0.5000104308128357 148.2632293701172 C 0.5000104308128357 142.9167327880859 0.7486770749092102 137.9362640380859 1.239093780517578 133.4602203369141 C 1.720052123069763 129.0708923339844 2.449343681335449 125.02197265625 3.406760454177856 121.4260177612305 C 4.34151029586792 117.9151840209961 5.525093555450439 114.7186813354492 6.924551963806152 111.9253082275391 C 8.284551620483398 109.2106399536133 9.895551681518555 106.7832260131836 11.71271896362305 104.7105178833008 C 18.34601020812988 97.14430999755859 28.12434387207031 93.62035369873047 42.4857177734375 93.62035369873047 C 55.85063552856445 93.62035369873047 71.62030029296875 96.56443786621094 89.88005065917969 99.97339630126953 C 112.7975540161133 104.2519378662109 138.7728424072266 109.1013107299805 166.35546875 109.1013107299805 C 193.9343414306641 109.1013107299805 219.9098815917969 104.2520599365234 242.8276824951172 99.97368621826172 C 261.0890197753906 96.56455993652344 276.860107421875 93.62035369873047 290.2252197265625 93.62035369873047 C 304.589599609375 93.62035369873047 314.3686828613281 97.14364624023438 321.0005493164062 104.7083511352539 C 322.8175048828125 106.780891418457 324.42822265625 109.2081451416016 325.7880249023438 111.9227676391602 C 327.1872253417969 114.7160568237305 328.3705139160156 117.91259765625 329.3050231933594 121.4235992431641 C 330.2621765136719 125.0195999145508 330.9913024902344 129.0687713623047 331.4721069335938 133.4585571289062 C 331.9623413085938 137.9348907470703 332.2109375 142.9159393310547 332.2109375 148.2632293701172 C 332.2109375 159.7345581054688 331.0770874023438 171.1985626220703 328.8409729003906 182.3367309570312 C 326.6617126464844 193.1915130615234 323.4099731445312 203.8686065673828 319.1760864257812 214.0713958740234 C 315.01904296875 224.0888977050781 309.8738098144531 233.7508087158203 303.8832702636719 242.7887268066406 C 297.9496765136719 251.7406768798828 291.1353454589844 260.1587219238281 283.629638671875 267.8089904785156 C 276.1240539550781 275.4590454101562 267.8653564453125 282.4043579101562 259.0827941894531 288.4519348144531 C 250.2163848876953 294.5573120117188 240.7378845214844 299.8011474609375 230.9105987548828 304.0377807617188 C 220.9018859863281 308.3526000976562 210.4279632568359 311.6664733886719 199.7798004150391 313.8873596191406 C 188.8538055419922 316.1661987304688 177.6082611083984 317.3216552734375 166.35546875 317.3216552734375 Z" stroke="none"/>
        <path d="M 42.48568725585938 94.120361328125 C 35.58782958984375 94.120361328125 29.87612915039062 94.92059326171875 25.02423095703125 96.56680297851562 C 19.7496337890625 98.3564453125 15.51837158203125 101.1280517578125 12.08868408203125 105.0401000976562 C 10.29959106445312 107.080810546875 8.7125244140625 109.4726867675781 7.37158203125 112.1492614746094 C 5.987335205078125 114.9122619628906 4.81591796875 118.0766906738281 3.889923095703125 121.5546875 C 2.93896484375 125.1263580322266 2.21435546875 129.1503143310547 1.73614501953125 133.5146789550781 C 1.2476806640625 137.9727325439453 1 142.9348449707031 1 148.2632293701172 C 1 159.7015991210938 2.13055419921875 171.1324768066406 4.3602294921875 182.2383117675781 C 6.533050537109375 193.0612335205078 9.77520751953125 203.7069396972656 13.99667358398438 213.8797302246094 C 18.1414794921875 223.8677215576172 23.27154541015625 233.5011901855469 29.24441528320312 242.5124816894531 C 35.1605224609375 251.4380187988281 41.95468139648438 259.8311767578125 49.438232421875 267.4587707519531 C 56.92141723632812 275.0860595703125 65.15545654296875 282.0105895996094 73.91168212890625 288.0401000976562 C 82.75126647949219 294.1269836425781 92.20097351074219 299.3548583984375 101.9983062744141 303.5785522460938 C 111.9762115478516 307.880126953125 122.4178924560547 311.1838073730469 133.0332183837891 313.3978576660156 C 143.9257202148438 315.669677734375 155.1369323730469 316.8215942382812 166.35546875 316.8215942382812 C 177.5740051269531 316.8215942382812 188.7852172851562 315.669677734375 199.6777191162109 313.3978576660156 C 210.2930603027344 311.1838073730469 220.7347106933594 307.880126953125 230.712646484375 303.5785522460938 C 240.5099792480469 299.3548583984375 249.9596862792969 294.1269836425781 258.7992553710938 288.0401000976562 C 267.5554809570312 282.0105895996094 275.7895202636719 275.0860595703125 283.272705078125 267.4587707519531 C 290.7562561035156 259.8311767578125 297.5504150390625 251.4380187988281 303.4665222167969 242.5124816894531 C 309.4393920898438 233.5011901855469 314.5694580078125 223.8677215576172 318.7142639160156 213.8797302246094 C 322.9357299804688 203.7069396972656 326.1778869628906 193.0612335205078 328.3507080078125 182.2383117675781 C 330.5803833007812 171.1324768066406 331.7109375 159.7015991210938 331.7109375 148.2632293701172 C 331.7109375 142.9342651367188 331.4634399414062 137.9718017578125 330.975341796875 133.5136413574219 C 330.4974670410156 129.1488952636719 329.7732543945312 125.1247711181641 328.8228759765625 121.5530242919922 C 327.8974304199219 118.0748443603516 326.7266235351562 114.9103088378906 325.3430786132812 112.1473388671875 C 324.0028076171875 109.4707336425781 322.4164123535156 107.0788879394531 320.6280822753906 105.0382995605469 C 317.1996765136719 101.1264038085938 312.9696044921875 98.35501098632812 307.6960144042969 96.5657958984375 C 302.8448791503906 94.919921875 297.1332092285156 94.12002563476562 290.2346801757812 94.120361328125 L 290.225341796875 94.120361328125 C 276.9084777832031 94.12173461914062 261.1613464355469 97.06121826171875 242.9277191162109 100.4649353027344 C 219.9862976074219 104.7474365234375 193.9839324951172 109.601318359375 166.35546875 109.601318359375 C 138.7265472412109 109.601318359375 112.7270965576172 104.7474060058594 89.78825378417969 100.4649047851562 C 71.55291748046875 97.06048583984375 55.80435180664062 94.120361328125 42.48568725585938 94.120361328125 M 42.48568725585938 93.12033081054688 C 72.94253540039062 93.12033081054688 117.1540374755859 108.601318359375 166.35546875 108.601318359375 C 215.5513000488281 108.601318359375 259.7687377929688 93.12347412109375 290.2252502441406 93.12033081054688 C 316.6477355957031 93.11761474609375 332.7109375 104.7617492675781 332.7109375 148.2632293701172 C 332.7109375 241.9077606201172 258.2310485839844 317.8215942382812 166.35546875 317.8215942382812 C 74.47988891601562 317.8215942382812 0 241.9077606201172 0 148.2632293701172 C 0 104.7674560546875 16.06939697265625 93.12033081054688 42.48568725585938 93.12033081054688 Z" stroke="none" fill="#707070"/>
      </g>
    </g>
  </g>
</svg>
